<mxfile host="app.diagrams.net" modified="2023-12-08T01:32:51.938Z" agent="Mozilla/5.0 (Macintosh; Intel Mac OS X 10_15_7) AppleWebKit/537.36 (KHTML, like Gecko) Chrome/121.0.0.0 Safari/537.36" version="22.1.7" etag="-uRLorJu8n0BWvJc514M" type="github">
  <diagram name="Page-1" id="Xgi2_Xju_00dgQr1oOX1">
    <mxGraphModel>
      <root>
        <mxCell id="0" />
        <mxCell id="1" parent="0" />
      </root>
    </mxGraphModel>
  </diagram>
</mxfile>
